<svg width="158" height="25" viewBox="0 0 158 25" fill="none" xmlns="http://www.w3.org/2000/svg">
<path d="M8.152 24.288C6.57333 24.288 5.18667 23.7973 3.992 22.816C2.81867 21.8347 1.90133 20.4587 1.24 18.688C0.6 16.896 0.28 14.784 0.28 12.352C0.28 10.0053 0.632 7.95733 1.336 6.208C2.06133 4.43733 3.02133 3.072 4.216 2.112C5.432 1.13067 6.776 0.639999 8.248 0.639999C9.12267 0.639999 9.89067 0.725332 10.552 0.895998C11.2133 1.04533 11.8 1.248 12.312 1.504C12.568 1.65333 12.696 1.87733 12.696 2.176L12.792 7.04C12.792 7.40267 12.664 7.584 12.408 7.584C12.1733 7.584 12.024 7.44533 11.96 7.168L11.64 5.984C11.192 4.32 10.6693 3.168 10.072 2.528C9.496 1.888 8.80267 1.568 7.992 1.568C6.49867 1.568 5.25067 2.496 4.248 4.352C3.26667 6.18667 2.776 8.85333 2.776 12.352C2.776 14.7413 3.02133 16.7573 3.512 18.4C4.024 20.0427 4.67467 21.28 5.464 22.112C6.27467 22.944 7.128 23.36 8.024 23.36C8.984 23.36 9.752 23.0613 10.328 22.464C10.9253 21.8667 11.4267 20.7147 11.832 19.008L12.216 17.44C12.28 17.12 12.4507 16.9813 12.728 17.024C12.9627 17.0667 13.08 17.248 13.08 17.568L12.952 22.752C12.952 23.0507 12.8133 23.2747 12.536 23.424C12.024 23.68 11.416 23.8827 10.712 24.032C10.0293 24.2027 9.176 24.288 8.152 24.288ZM15.463 24C15.143 24 14.983 23.8827 14.983 23.648C14.983 23.456 15.1217 23.328 15.399 23.264L16.135 23.136C16.583 23.0507 16.871 22.9333 16.999 22.784C17.1483 22.6347 17.223 22.336 17.223 21.888V3.072C17.223 2.624 17.1483 2.32533 16.999 2.176C16.871 2.02667 16.583 1.90933 16.135 1.824L15.399 1.696C15.1217 1.632 14.983 1.504 14.983 1.312C14.983 1.07733 15.143 0.959999 15.463 0.959999H21.319C21.639 0.959999 21.799 1.088 21.799 1.344C21.799 1.536 21.6817 1.65333 21.447 1.696L20.583 1.824C20.135 1.888 19.8363 2.00533 19.687 2.176C19.559 2.34667 19.495 2.656 19.495 3.104V11.136C19.495 11.4347 19.6443 11.584 19.943 11.584H26.279C26.5777 11.584 26.727 11.4347 26.727 11.136V3.104C26.727 2.656 26.6523 2.34667 26.503 2.176C26.375 2.00533 26.087 1.888 25.639 1.824L24.775 1.696C24.5403 1.65333 24.423 1.536 24.423 1.344C24.423 1.088 24.583 0.959999 24.903 0.959999H30.759C31.079 0.959999 31.239 1.07733 31.239 1.312C31.239 1.504 31.1003 1.632 30.823 1.696L30.087 1.824C29.639 1.90933 29.3403 2.02667 29.191 2.176C29.063 2.32533 28.999 2.624 28.999 3.072V21.888C28.999 22.336 29.063 22.6347 29.191 22.784C29.3403 22.9333 29.639 23.0507 30.087 23.136L30.823 23.264C31.1003 23.328 31.239 23.456 31.239 23.648C31.239 23.8827 31.079 24 30.759 24H24.903C24.583 24 24.423 23.872 24.423 23.616C24.423 23.424 24.5403 23.3067 24.775 23.264L25.639 23.136C26.087 23.072 26.375 22.9547 26.503 22.784C26.6523 22.6133 26.727 22.304 26.727 21.856V12.992C26.727 12.6933 26.5777 12.544 26.279 12.544H19.943C19.6443 12.544 19.495 12.6933 19.495 12.992V21.856C19.495 22.304 19.559 22.6133 19.687 22.784C19.8363 22.9547 20.135 23.072 20.583 23.136L21.447 23.264C21.6817 23.3067 21.799 23.424 21.799 23.616C21.799 23.872 21.639 24 21.319 24H15.463ZM31.2477 24C30.9277 24 30.7677 23.8933 30.7677 23.68C30.7677 23.4667 30.9171 23.328 31.2157 23.264L31.6958 23.168C32.1224 23.0827 32.4424 22.88 32.6558 22.56C32.8691 22.2187 33.0504 21.7493 33.1998 21.152L38.1598 1.152C38.2024 0.938665 38.2664 0.799999 38.3518 0.735998C38.4584 0.671999 38.5544 0.639999 38.6398 0.639999C38.7464 0.639999 38.8424 0.671999 38.9278 0.735998C39.0344 0.799999 39.1091 0.938665 39.1518 1.152L44.2078 21.44C44.3571 22.0373 44.5278 22.4533 44.7198 22.688C44.9118 22.9227 45.2104 23.0827 45.6158 23.168L46.0958 23.264C46.3944 23.328 46.5438 23.4667 46.5438 23.68C46.5438 23.8933 46.3838 24 46.0638 24H40.5918C40.2931 24 40.1438 23.8827 40.1438 23.648C40.1438 23.4133 40.3251 23.2853 40.6878 23.264L41.2958 23.2C41.6584 23.1573 41.8824 23.04 41.9678 22.848C42.0744 22.656 42.0744 22.3253 41.9678 21.856L40.7517 16.896C40.6238 16.3413 40.2718 16.064 39.6958 16.064H36.3358C35.7811 16.064 35.4291 16.3413 35.2798 16.896L34.1918 21.184C33.8718 22.4 34.1918 23.072 35.1518 23.2L35.6318 23.264C35.9944 23.328 36.1758 23.456 36.1758 23.648C36.1758 23.8827 36.0264 24 35.7278 24H31.2477ZM36.2398 15.104H39.7598C40.1011 15.104 40.2398 14.9227 40.1758 14.56L38.1278 5.984H37.9678L35.8238 14.56C35.7598 14.9227 35.8984 15.104 36.2398 15.104ZM46.7443 24C46.4243 24 46.2643 23.8827 46.2643 23.648C46.2643 23.456 46.4029 23.328 46.6803 23.264L47.4163 23.136C47.8643 23.0507 48.1523 22.9333 48.2803 22.784C48.4296 22.6347 48.5043 22.336 48.5043 21.888V3.072C48.5043 2.624 48.4296 2.32533 48.2803 2.176C48.1523 2.02667 47.8643 1.90933 47.4163 1.824L46.6803 1.696C46.4029 1.632 46.2643 1.504 46.2643 1.312C46.2643 1.07733 46.4243 0.959999 46.7443 0.959999H52.5363C52.8563 0.959999 53.0163 1.07733 53.0163 1.312C53.0163 1.504 52.8776 1.632 52.6003 1.696L51.8643 1.824C51.4163 1.90933 51.1176 2.02667 50.9683 2.176C50.8403 2.32533 50.7763 2.624 50.7763 3.072V21.888C50.7763 22.336 50.8403 22.6347 50.9683 22.784C51.1176 22.9333 51.4163 23.0507 51.8643 23.136L52.6003 23.264C52.8776 23.328 53.0163 23.456 53.0163 23.648C53.0163 23.8827 52.8563 24 52.5363 24H46.7443ZM67.353 24.288C67.0117 24.288 66.7237 24.032 66.489 23.52L57.817 4.704C57.753 4.55467 57.6677 4.49067 57.561 4.512C57.4757 4.53333 57.433 4.62933 57.433 4.8V21.248C57.433 21.8453 57.529 22.304 57.721 22.624C57.9343 22.9227 58.3077 23.1147 58.841 23.2L59.257 23.264C59.5343 23.2853 59.673 23.4133 59.673 23.648C59.673 23.8827 59.513 24 59.193 24H54.617C54.297 24 54.137 23.8827 54.137 23.648C54.137 23.4133 54.2757 23.2853 54.553 23.264L54.969 23.2C55.5237 23.1147 55.9077 22.9227 56.121 22.624C56.3343 22.304 56.441 21.8453 56.441 21.248V3.072C56.441 2.624 56.3663 2.32533 56.217 2.176C56.089 2.02667 55.7797 1.90933 55.289 1.824L54.553 1.696C54.2757 1.632 54.137 1.504 54.137 1.312C54.137 1.07733 54.297 0.959999 54.617 0.959999H58.041C58.5743 0.959999 58.9477 1.19467 59.161 1.664L66.713 18.272C66.777 18.4 66.8517 18.4533 66.937 18.432C67.0437 18.4107 67.097 18.336 67.097 18.208V3.712C67.097 3.02933 66.9797 2.56 66.745 2.304C66.5103 2.02667 66.2117 1.856 65.849 1.792L65.273 1.696C64.9957 1.632 64.857 1.504 64.857 1.312C64.857 1.07733 65.017 0.959999 65.337 0.959999H69.913C70.233 0.959999 70.393 1.07733 70.393 1.312C70.393 1.54667 70.2543 1.67467 69.977 1.696L69.561 1.76C69.0063 1.84533 68.6223 2.02667 68.409 2.304C68.1957 2.56 68.089 3.02933 68.089 3.712V23.264C68.089 23.648 68.0143 23.9147 67.865 24.064C67.737 24.2133 67.5663 24.288 67.353 24.288ZM71.9943 24C71.6743 24 71.5143 23.8827 71.5143 23.648C71.5143 23.456 71.6529 23.328 71.9303 23.264L72.6663 23.136C73.1143 23.0507 73.4023 22.9333 73.5303 22.784C73.6796 22.6347 73.7543 22.336 73.7543 21.888V3.072C73.7543 2.624 73.6796 2.32533 73.5303 2.176C73.4023 2.02667 73.1143 1.90933 72.6663 1.824L71.9303 1.696C71.6529 1.632 71.5143 1.504 71.5143 1.312C71.5143 1.07733 71.6743 0.959999 71.9943 0.959999H78.4903C79.5569 0.959999 80.5063 1.184 81.3383 1.632C82.1703 2.08 82.8209 2.688 83.2903 3.456C83.7809 4.224 84.0263 5.09867 84.0263 6.08C84.0263 7.04 83.7383 7.936 83.1623 8.768C82.6076 9.57867 81.7969 10.2613 80.7303 10.816C80.6023 10.88 80.5383 10.9653 80.5383 11.072C80.5383 11.1787 80.6129 11.2533 80.7623 11.296C82.2129 11.7867 83.3329 12.576 84.1223 13.664C84.9116 14.7307 85.3063 16 85.3063 17.472C85.3063 18.7307 85.0183 19.8613 84.4423 20.864C83.8663 21.8453 83.0663 22.6133 82.0423 23.168C81.0396 23.7227 79.8983 24 78.6183 24H71.9943ZM77.7223 10.848C78.8529 10.848 79.7916 10.4107 80.5383 9.536C81.3063 8.64 81.6903 7.53067 81.6903 6.208C81.6903 4.88533 81.3276 3.81867 80.6023 3.008C79.8769 2.176 78.9169 1.76 77.7223 1.76C76.5916 1.76 76.0263 2.18667 76.0263 3.04V9.088C76.0263 9.70667 76.1543 10.1547 76.4103 10.432C76.6876 10.7093 77.1249 10.848 77.7223 10.848ZM78.2023 23.2C79.5889 23.2 80.7196 22.6773 81.5943 21.632C82.4689 20.5653 82.9063 19.1467 82.9063 17.376C82.9063 15.6053 82.4583 14.208 81.5623 13.184C80.6876 12.16 79.5036 11.648 78.0103 11.648C76.6876 11.648 76.0263 12.1707 76.0263 13.216V20.992C76.0263 22.464 76.7516 23.2 78.2023 23.2ZM86.0915 24C85.7715 24 85.6115 23.8933 85.6115 23.68C85.6115 23.4667 85.7608 23.328 86.0595 23.264L86.5395 23.168C86.9662 23.0827 87.2862 22.88 87.4995 22.56C87.7128 22.2187 87.8942 21.7493 88.0435 21.152L93.0035 1.152C93.0462 0.938665 93.1102 0.799999 93.1955 0.735998C93.3022 0.671999 93.3982 0.639999 93.4835 0.639999C93.5902 0.639999 93.6862 0.671999 93.7715 0.735998C93.8782 0.799999 93.9528 0.938665 93.9955 1.152L99.0515 21.44C99.2008 22.0373 99.3715 22.4533 99.5635 22.688C99.7555 22.9227 100.054 23.0827 100.46 23.168L100.94 23.264C101.238 23.328 101.388 23.4667 101.388 23.68C101.388 23.8933 101.228 24 100.908 24H95.4355C95.1368 24 94.9875 23.8827 94.9875 23.648C94.9875 23.4133 95.1688 23.2853 95.5315 23.264L96.1395 23.2C96.5022 23.1573 96.7262 23.04 96.8115 22.848C96.9182 22.656 96.9182 22.3253 96.8115 21.856L95.5955 16.896C95.4675 16.3413 95.1155 16.064 94.5395 16.064H91.1795C90.6248 16.064 90.2728 16.3413 90.1235 16.896L89.0355 21.184C88.7155 22.4 89.0355 23.072 89.9955 23.2L90.4755 23.264C90.8382 23.328 91.0195 23.456 91.0195 23.648C91.0195 23.8827 90.8702 24 90.5715 24H86.0915ZM91.0835 15.104H94.6035C94.9448 15.104 95.0835 14.9227 95.0195 14.56L92.9715 5.984H92.8115L90.6675 14.56C90.6035 14.9227 90.7422 15.104 91.0835 15.104ZM101.588 24C101.268 24 101.108 23.8827 101.108 23.648C101.108 23.456 101.247 23.328 101.524 23.264L102.26 23.136C102.708 23.0507 102.996 22.9333 103.124 22.784C103.273 22.6347 103.348 22.336 103.348 21.888V3.072C103.348 2.624 103.273 2.32533 103.124 2.176C102.996 2.02667 102.708 1.90933 102.26 1.824L101.524 1.696C101.247 1.632 101.108 1.504 101.108 1.312C101.108 1.07733 101.268 0.959999 101.588 0.959999H107.444C107.764 0.959999 107.924 1.088 107.924 1.344C107.924 1.536 107.807 1.65333 107.572 1.696L106.708 1.824C106.26 1.888 105.961 2.00533 105.812 2.176C105.684 2.34667 105.62 2.656 105.62 3.104V21.024C105.62 21.792 105.833 22.3467 106.26 22.688C106.708 23.0293 107.263 23.2 107.924 23.2C108.415 23.2 108.916 23.104 109.428 22.912C109.961 22.6987 110.441 22.3147 110.868 21.76C111.295 21.184 111.615 20.352 111.828 19.264L112.244 17.12C112.308 16.8427 112.468 16.704 112.724 16.704C113.023 16.704 113.151 16.8853 113.108 17.248L112.724 23.264C112.681 23.7547 112.415 24 111.924 24H101.588ZM114.807 24C114.487 24 114.327 23.8827 114.327 23.648C114.327 23.456 114.465 23.328 114.743 23.264L115.479 23.136C115.927 23.0507 116.215 22.9333 116.343 22.784C116.492 22.6347 116.567 22.336 116.567 21.888V3.072C116.567 2.624 116.492 2.32533 116.343 2.176C116.215 2.02667 115.927 1.90933 115.479 1.824L114.743 1.696C114.465 1.632 114.327 1.504 114.327 1.312C114.327 1.07733 114.487 0.959999 114.807 0.959999H120.663C120.983 0.959999 121.143 1.088 121.143 1.344C121.143 1.536 121.025 1.65333 120.791 1.696L119.927 1.824C119.479 1.888 119.18 2.00533 119.031 2.176C118.903 2.34667 118.839 2.656 118.839 3.104V21.024C118.839 21.792 119.052 22.3467 119.479 22.688C119.927 23.0293 120.481 23.2 121.143 23.2C121.633 23.2 122.135 23.104 122.647 22.912C123.18 22.6987 123.66 22.3147 124.087 21.76C124.513 21.184 124.833 20.352 125.047 19.264L125.463 17.12C125.527 16.8427 125.687 16.704 125.943 16.704C126.241 16.704 126.369 16.8853 126.327 17.248L125.943 23.264C125.9 23.7547 125.633 24 125.143 24H114.807ZM135.14 24.288C134.116 24.288 133.156 23.9893 132.26 23.392C131.364 22.7733 130.575 21.9307 129.892 20.864C129.231 19.7973 128.708 18.5493 128.324 17.12C127.961 15.6693 127.78 14.112 127.78 12.448C127.78 10.784 127.961 9.23733 128.324 7.808C128.708 6.37867 129.231 5.13067 129.892 4.064C130.575 2.976 131.364 2.13333 132.26 1.536C133.156 0.938666 134.116 0.639999 135.14 0.639999C136.164 0.639999 137.113 0.938666 137.988 1.536C138.884 2.13333 139.673 2.976 140.356 4.064C141.039 5.13067 141.561 6.37867 141.924 7.808C142.308 9.23733 142.5 10.784 142.5 12.448C142.5 14.112 142.308 15.6693 141.924 17.12C141.561 18.5493 141.039 19.7973 140.356 20.864C139.673 21.9307 138.884 22.7733 137.988 23.392C137.113 23.9893 136.164 24.288 135.14 24.288ZM135.14 23.424C136.655 23.424 137.839 22.5173 138.692 20.704C139.545 18.8907 139.972 16.1387 139.972 12.448C139.972 8.75733 139.545 6.016 138.692 4.224C137.839 2.41067 136.655 1.504 135.14 1.504C133.647 1.504 132.463 2.41067 131.588 4.224C130.735 6.016 130.308 8.75733 130.308 12.448C130.308 16.1387 130.735 18.8907 131.588 20.704C132.463 22.5173 133.647 23.424 135.14 23.424ZM147.182 24C146.862 24 146.702 23.8827 146.702 23.648C146.702 23.4133 146.841 23.2853 147.118 23.264L148.558 23.04C148.985 22.976 149.273 22.8693 149.422 22.72C149.572 22.5493 149.646 22.24 149.646 21.792V2.592C149.646 2.29333 149.582 2.08 149.454 1.952C149.326 1.824 149.06 1.76 148.654 1.76C147.865 1.76 147.086 2.10133 146.318 2.784C145.55 3.46667 145.049 4.56533 144.814 6.08L144.654 7.136C144.612 7.41333 144.462 7.552 144.206 7.552C143.886 7.552 143.748 7.37067 143.79 7.008L144.078 1.216C144.121 0.725333 144.313 0.48 144.654 0.48C144.804 0.48 144.942 0.522666 145.07 0.608C145.198 0.671999 145.412 0.746665 145.71 0.831999C146.03 0.917332 146.532 0.959999 147.214 0.959999H154.35C155.033 0.959999 155.524 0.917332 155.822 0.831999C156.142 0.746665 156.366 0.671999 156.494 0.608C156.644 0.522666 156.782 0.48 156.91 0.48C157.252 0.48 157.444 0.725333 157.486 1.216L157.774 7.008C157.817 7.37067 157.678 7.552 157.358 7.552C157.102 7.552 156.953 7.41333 156.91 7.136L156.75 6.08C156.537 4.56533 156.046 3.46667 155.278 2.784C154.51 2.10133 153.721 1.76 152.91 1.76C152.505 1.76 152.238 1.824 152.11 1.952C151.982 2.08 151.918 2.29333 151.918 2.592V21.792C151.918 22.24 151.993 22.5493 152.142 22.72C152.313 22.8693 152.601 22.976 153.006 23.04L154.446 23.264C154.724 23.2853 154.862 23.4133 154.862 23.648C154.862 23.8827 154.702 24 154.382 24H147.182Z" fill="#F5F5F5"/>
</svg>
