<svg width="28" height="24" viewBox="0 0 28 24" fill="none" xmlns="http://www.w3.org/2000/svg">
<path d="M28 2.82353C26.9694 3.31765 25.8585 3.64235 24.7075 3.79765C25.8853 3.04941 26.7954 1.86353 27.2237 0.437647C26.1128 1.14353 24.8815 1.63765 23.5832 1.92C22.5258 0.705883 21.0402 0 19.3537 0C16.2084 0 13.6386 2.71059 13.6386 6.05647C13.6386 6.53647 13.6922 7.00235 13.7859 7.44C9.02103 7.18588 4.7782 4.77176 1.95411 1.11529C1.45889 2.00471 1.17782 3.04941 1.17782 4.15059C1.17782 6.25412 2.18164 8.11765 3.73423 9.17647C2.78394 9.17647 1.90057 8.89412 1.12428 8.47059V8.51294C1.12428 11.4494 3.10516 13.9059 5.72849 14.4565C4.8864 14.7006 4.00196 14.7345 3.14532 14.5553C3.50884 15.7588 4.2208 16.8119 5.18109 17.5665C6.14139 18.3211 7.30175 18.7393 8.49904 18.7624C6.46954 20.4572 3.95374 21.3733 1.3652 21.36C0.910134 21.36 0.455067 21.3318 0 21.2753C2.54302 22.9976 5.56788 24 8.80688 24C19.3537 24 25.1491 14.7671 25.1491 6.76235C25.1491 6.49412 25.1491 6.24 25.1358 5.97176C26.26 5.12471 27.2237 4.05176 28 2.82353Z" fill="#FFFEFE"/>
</svg>
