<svg width="32" height="32" viewBox="0 0 32 32" fill="none" xmlns="http://www.w3.org/2000/svg">
<circle cx="16" cy="16" r="16" fill="#3B99FC"/>
<path fill-rule="evenodd" clip-rule="evenodd" d="M22.2992 11.9381C18.8202 8.46464 13.1796 8.46464 9.70063 11.9381L9.24106 12.3969C9.06711 12.5706 9.06711 12.8522 9.24106 13.0259L10.6734 14.4559C10.7603 14.5427 10.9014 14.5427 10.9883 14.4559L11.6054 13.8398C14.0324 11.4166 17.9674 11.4166 20.3945 13.8398L20.9707 14.4151C21.0576 14.5019 21.1987 14.5019 21.2856 14.4151L22.7179 12.9851C22.8919 12.8114 22.8919 12.5298 22.7179 12.3561L22.2992 11.9381ZM26.5361 16.1683L25.2614 14.8955C25.0874 14.7219 24.8054 14.7219 24.6314 14.8955L20.5519 18.9686C20.5084 19.012 20.4379 19.012 20.3944 18.9686L16.3148 14.8955L16.3148 14.8955C16.1409 14.7218 15.8588 14.7218 15.6849 14.8955L11.6055 18.9686C11.562 19.012 11.4915 19.012 11.448 18.9686L7.3684 14.8955C7.19445 14.7218 6.91242 14.7218 6.73847 14.8955L5.46371 16.1682C5.28976 16.3419 5.28976 16.6235 5.46371 16.7971L11.2118 22.5361C11.3858 22.7098 11.6678 22.7098 11.8418 22.5361L15.9212 18.463C15.9647 18.4196 16.0352 18.4196 16.0787 18.463L20.1582 22.5361C20.3322 22.7098 20.6142 22.7098 20.7882 22.5361L26.5361 16.7972C26.7101 16.6235 26.7101 16.3419 26.5361 16.1683Z" fill="white"/>
</svg>
